REM MD5 71eafd64a2c18116650549ea6f54165d
FILE "Dengeki PlayStation D17 (Japan).bin" BINARY
  TRACK 01 MODE2/2352
    INDEX 01 00:00:00
  TRACK 02 AUDIO
    INDEX 00 52:34:27
    INDEX 01 52:36:27
  TRACK 03 AUDIO
    INDEX 00 54:18:18
    INDEX 01 54:20:18
  TRACK 04 AUDIO
    INDEX 00 57:58:17
    INDEX 01 58:00:17
REM LEADOUT 61:30:17
